<svg width="24" height="24" viewBox="0 0 24 24" fill="none" xmlns="http://www.w3.org/2000/svg">
<path d="M21 6.22401L21.4 6.52401C22.4052 7.27788 23 8.45897 23 9.72402V19C23 21.2047 21.2047 23 19 23L17 23V14C17 12.8974 16.1049 12 15 12H9C7.89506 12 7 12.8974 7 14V23H5C2.79528 23 1 21.2047 1 19V9.72402C1 8.39151 1.65877 7.153 2.76255 6.40781L9.7622 1.68405C9.76226 1.68401 9.76233 1.68396 9.76239 1.68392C11.1234 0.766002 12.8768 0.766046 14.2378 1.68405L19.4406 5.19494L21 6.2472V6.22401Z" stroke="black" stroke-width="2"/>
</svg>
