<svg width="24" height="24" viewBox="0 0 24 24" fill="none" xmlns="http://www.w3.org/2000/svg">
<g clip-path="url(#clip0_44_5)">
<path d="M7.1354 3.96591L7.24119 3.66668C7.51597 2.88946 8.02416 2.21613 8.69626 1.73879C9.36815 1.26159 10.171 1.00358 10.9951 1.00001M7.1354 3.96591L10.9951 1.00001M7.1354 3.96591C7.35322 3.15751 7.81942 2.43538 8.47113 1.90338C9.18392 1.32151 10.0751 1.00258 10.9951 1.00001M7.1354 3.96591L10.9951 1.00001M17.0847 5H17.2302H17.9H18.9995C20.0601 5.00147 21.0768 5.42341 21.8267 6.17333C22.5768 6.92342 22.9987 7.9404 23 9.0012V11H1V9.00063C1.00142 7.94004 1.42336 6.92329 2.17333 6.17333C2.92325 5.42341 3.93993 5.00147 5.00046 5H6.1H6.7698H6.91528H8.184H15.816H17.0847ZM16.8646 3.9659L16.7588 3.66668C16.484 2.88946 15.9758 2.21613 15.3037 1.73879C14.6318 1.26159 13.829 1.00358 13.0049 1.00001C13.9249 1.00258 14.8161 1.32151 15.5289 1.90338C16.1806 2.43538 16.6468 3.15751 16.8646 3.9659Z" stroke="black" stroke-width="2"/>
<path d="M13.4142 16.4142C13.7893 16.0391 14 15.5304 14 15L23 15V18.9988C22.9987 20.0596 22.5768 21.0766 21.8267 21.8267C21.0768 22.5766 20.0601 22.9985 18.9995 23C18.9993 23 18.999 23 18.9988 23H5.0012C5.00095 23 5.0007 23 5.00046 23C3.93993 22.9985 2.92325 22.5766 2.17333 21.8267C1.42336 21.0767 1.00142 20.06 1 18.9994V15L10 15C10 15.5304 10.2107 16.0391 10.5858 16.4142C10.9609 16.7893 11.4696 17 12 17C12.5304 17 13.0391 16.7893 13.4142 16.4142Z" stroke="black" stroke-width="2"/>
</g>
<defs>
<clipPath id="clip0_44_5">
<rect width="24" height="24" fill="white"/>
</clipPath>
</defs>
</svg>
