<svg width="24" height="24" viewBox="0 0 24 24" fill="none" xmlns="http://www.w3.org/2000/svg">
<path d="M9.06347 13.0319L9.06396 13.0322C9.81172 13.502 10.8844 14 12.001 14C13.1174 14 14.1891 13.5022 14.9385 13.0319L15.47 13.879M9.06347 13.0319L6.93835 16.4206C8.05244 17.1198 9.8696 18 12 18C13.978 18 15.686 17.2412 16.812 16.573H16.8207L17.0645 16.4201C17.9986 15.834 18.283 14.6001 17.6952 13.6637C17.1094 12.7288 15.8723 12.4428 14.9364 13.0333L15.47 13.879M9.06347 13.0319C8.12697 12.4444 6.89429 12.7305 6.30774 13.6622C5.71938 14.5968 6.00092 15.8329 6.93731 16.4199L9.06347 13.0319ZM15.47 13.879C14.654 14.391 13.391 15 12.001 15C10.611 15 9.347 14.391 8.532 13.879H15.47ZM22.5 10H22.5316C22.7918 10.0165 23 10.2349 23 10.499V13.499C23 13.7737 22.7747 13.999 22.5 13.999H22H21V14.999V21.854C21 22.2786 20.7685 22.6654 20.3935 22.8666C20.2226 22.9583 20.0373 23.003 19.851 23.003C19.629 23.003 19.4076 22.9386 19.2147 22.8099L15.2517 20.1679L14.9998 20H14.697H7C4.79528 20 3 18.2047 3 16V15V14H2H1.5C1.22528 14 1 13.7747 1 13.5V10.5C1 10.2253 1.22528 10 1.5 10H2H3V9V8C3 5.79528 4.79528 4 7 4H11H12H13H17C19.2047 4 21 5.79528 21 8V9V10H22H22.5ZM11 9.5C11 8.11972 9.88028 7 8.5 7C7.11972 7 6 8.11972 6 9.5C6 10.8803 7.11972 12 8.5 12C9.88028 12 11 10.8803 11 9.5ZM13 9.5C13 10.8803 14.1197 12 15.5 12C16.8803 12 18 10.8803 18 9.5C18 8.11972 16.8803 7 15.5 7C14.1197 7 13 8.11972 13 9.5Z" stroke="black" stroke-width="2"/>
</svg>
