<svg width="24" height="24" viewBox="0 0 24 24" fill="none" xmlns="http://www.w3.org/2000/svg">
<path d="M9.8602 16.2264C10.0375 16.4318 10.0293 16.7435 9.8329 16.9399L4.3249 22.4479C3.54001 23.2328 2.25196 23.2081 1.49712 22.3708C0.832208 21.6324 0.884396 20.3798 1.68812 19.5761L7.07812 14.1861C7.28335 13.9809 7.61572 13.9816 7.81931 14.1855L7.8199 14.1861L9.8319 16.1981L9.8602 16.2264ZM11.4566 4.76356L11.4569 4.76288C12.3444 2.55444 14.4985 0.998993 17.018 0.998993C17.3504 0.998993 17.6744 1.02612 17.9892 1.07857L16.0429 3.02489C14.5918 4.47603 14.6813 6.88457 16.3078 8.21495C17.8224 9.45421 19.9086 9.05866 21.3131 7.6541L22.9383 6.02892C22.9904 6.34581 23.018 6.66987 23.018 6.99999C23.018 9.00608 22.0228 10.7701 20.493 11.8572C20.4722 11.86 20.4434 11.8617 20.4098 11.8593C20.323 11.8529 20.2298 11.8222 20.1425 11.7373C19.1134 10.7091 17.7568 10.1229 16.3837 10.0195L11.542 5.17882L11.5412 5.17798C11.4335 5.07052 11.3995 4.90542 11.4566 4.76356ZM17.3179 14.5691L17.3217 14.5729L22.4391 19.6358C23.196 20.6482 23.1626 21.751 22.4853 22.4295C21.7757 23.1403 20.43 23.1248 19.6261 22.3209L19.6223 22.3171L14.5691 17.3179C14.5686 17.3173 14.568 17.3168 14.5675 17.3162C14.0728 16.8204 13.9061 16.1192 14.0707 15.4664L14.2094 14.9161L13.8081 14.5148L6.58407 7.29184L6.29118 6.99899H5.87701H3.99901C3.60418 6.99899 3.23958 6.78854 3.04228 6.44642L3.04226 6.44638L1.07726 3.03938L1.07692 3.03879C0.94661 2.81321 0.983999 2.52685 1.16942 2.3418L1.17012 2.3411L2.34212 1.1691C2.52738 0.983838 2.81324 0.946598 3.0388 1.0769L3.03948 1.07729L6.44544 3.04127C6.44545 3.04127 6.44547 3.04128 6.44548 3.04129C6.78791 3.23878 6.99901 3.60456 6.99901 3.99899V5.87999V6.29425L7.29195 6.58715L14.514 13.8081L14.9155 14.2097L15.4661 14.0705C16.1196 13.9053 16.8215 14.0727 17.3179 14.5691Z" stroke="black" stroke-width="2"/>
</svg>
